{"accessors" : [{"bufferView" : 0, "byteOffset" : 0, "componentType" : 5123, "count" : 564, "type" : "SCALAR", "max" : [563], "min" : [0]}, {"bufferView" : 1, "byteOffset" : 0, "componentType" : 5126, "count" : 564, "type" : "VEC3", "max" : [0.1186368390917778, 0.03447582200169563, 0.18030226230621338], "min" : [-0.14830909669399261, -0.033988721668720245, -0.17987723648548126], "name" : "POSITION"}, {"bufferView" : 1, "byteOffset" : 12, "componentType" : 5126, "count" : 564, "type" : "VEC3", "max" : [1.0000044107437134, 1.0000044107437134, 1.0000044107437134], "min" : [-1.0000044107437134, -1.0000044107437134, -1.0000044107437134], "name" : "NORMAL"}, {"bufferView" : 1, "byteOffset" : 24, "componentType" : 5126, "count" : 564, "type" : "VEC2", "max" : [0.9702032208442688, 0.9256470799446106], "min" : [0.26594626903533936, 0.8251380324363708], "name" : "TEXCOORD_0"}, {"bufferView" : 1, "byteOffset" : 32, "componentType" : 5126, "count" : 564, "type" : "VEC2", "max" : [0.9844961166381836, 0.9849090576171875], "min" : [0.01550387591123581, 0.04172384738922119], "name" : "TEXCOORD_1"}], "asset" : {"generator" : "Aspose.3D 24.4.1", "version" : "2.0"}, "buffers" : [{"uri" : "data:application/octet-stream;base64,", "byteLength" : 23696}], "bufferViews" : [{"buffer" : 0, "byteOffset" : 0, "byteLength" : 1128, "target" : 34963}, {"buffer" : 0, "byteOffset" : 1132, "byteLength" : 22560, "byteStride" : 40, "target" : 34962}], "images" : [{"uri" : "D:\\JustCreate\\Project018\\Unity\\Texture\\Texture_01.png"}], "materials" : [{"name" : "Dungeon_Mat_01", "pbrMetallicRoughness" : {"baseColorFactor" : [1, 1, 1, 1], "baseColorTexture" : {"index" : 0, "texCoord" : 0}, "metallicFactor" : 1, "roughnessFactor" : 1}, "emissiveFactor" : [0, 0, 0], "alphaMode" : "OPAQUE", "doubleSided" : false}], "meshes" : [{"primitives" : [{"attributes" : {"POSITION" : 1, "NORMAL" : 2, "TEXCOORD_0" : 3, "TEXCOORD_1" : 4}, "indices" : 0, "material" : 0, "mode" : 4}], "name" : ""}], "nodes" : [{"mesh" : 0, "name" : "Book_09"}], "samplers" : [{"magFilter" : 9729, "minFilter" : 9729, "wrapS" : 10497, "wrapT" : 10497}], "scene" : 0, "scenes" : [{"nodes" : [0]}], "textures" : [{"sampler" : 0, "source" : 0, "name" : "base_color_texture"}]}