{"accessors" : [{"bufferView" : 0, "byteOffset" : 0, "componentType" : 5123, "count" : 1674, "type" : "SCALAR", "max" : [1673], "min" : [0]}, {"bufferView" : 1, "byteOffset" : 0, "componentType" : 5126, "count" : 1674, "type" : "VEC3", "max" : [0.45955824851989746, 0.45949631929397583, 0.45655307173728943], "min" : [-0.45674335956573486, -0.45712995529174805, -0.4566690921783447], "name" : "POSITION"}, {"bufferView" : 1, "byteOffset" : 12, "componentType" : 5126, "count" : 1674, "type" : "VEC3", "max" : [1.0000044107437134, 1.0000044107437134, 1.0000044107437134], "min" : [-1.0000044107437134, -1.0000044107437134, -1.0000044107437134], "name" : "NORMAL"}, {"bufferView" : 1, "byteOffset" : 24, "componentType" : 5126, "count" : 1674, "type" : "VEC2", "max" : [0.1791747510433197, 0.3851355314254761], "min" : [0.010758676566183567, 0.2058478593826294], "name" : "TEXCOORD_0"}, {"bufferView" : 1, "byteOffset" : 32, "componentType" : 5126, "count" : 1674, "type" : "VEC2", "max" : [0.9194472432136536, 0.9844961166381836], "min" : [0.014479484409093857, 0.015503883361816406], "name" : "TEXCOORD_1"}], "asset" : {"generator" : "Aspose.3D 24.4.1", "version" : "2.0"}, "buffers" : [{"uri" : "data:application/octet-stream;base64,", "byteLength" : 70316}], "bufferViews" : [{"buffer" : 0, "byteOffset" : 0, "byteLength" : 3348, "target" : 34963}, {"buffer" : 0, "byteOffset" : 3352, "byteLength" : 66960, "byteStride" : 40, "target" : 34962}], "images" : [{"uri" : "D:\\JustCreate\\Project018\\Unity\\Texture\\Texture_01.png"}], "materials" : [{"name" : "Dungeon_Mat_01", "pbrMetallicRoughness" : {"baseColorFactor" : [1, 1, 1, 1], "baseColorTexture" : {"index" : 0, "texCoord" : 0}, "metallicFactor" : 1, "roughnessFactor" : 1}, "emissiveFactor" : [0, 0, 0], "alphaMode" : "OPAQUE", "doubleSided" : false}], "meshes" : [{"primitives" : [{"attributes" : {"POSITION" : 1, "NORMAL" : 2, "TEXCOORD_0" : 3, "TEXCOORD_1" : 4}, "indices" : 0, "material" : 0, "mode" : 4}], "name" : ""}], "nodes" : [{"mesh" : 0, "name" : "Box_02"}], "samplers" : [{"magFilter" : 9729, "minFilter" : 9729, "wrapS" : 10497, "wrapT" : 10497}], "scene" : 0, "scenes" : [{"nodes" : [0]}], "textures" : [{"sampler" : 0, "source" : 0, "name" : "base_color_texture"}]}