{"accessors" : [{"bufferView" : 0, "byteOffset" : 0, "componentType" : 5123, "count" : 174, "type" : "SCALAR", "max" : [173], "min" : [0]}, {"bufferView" : 1, "byteOffset" : 0, "componentType" : 5126, "count" : 174, "type" : "VEC3", "max" : [0.04963042959570885, 0.16652289032936096, 0.057308319956064224], "min" : [-0.04963042959570885, -1.8673409485359116E-08, -0.05730828270316124], "name" : "POSITION"}, {"bufferView" : 1, "byteOffset" : 12, "componentType" : 5126, "count" : 174, "type" : "VEC3", "max" : [1.0000044107437134, 1.0000044107437134, 0.999890148639679], "min" : [-1.0000044107437134, -1.0000044107437134, -0.999890148639679], "name" : "NORMAL"}, {"bufferView" : 1, "byteOffset" : 24, "componentType" : 5126, "count" : 174, "type" : "VEC2", "max" : [0.9208159446716309, 0.9012567400932312], "min" : [0.14819611608982086, 0.4335850477218628], "name" : "TEXCOORD_0"}, {"bufferView" : 1, "byteOffset" : 32, "componentType" : 5126, "count" : 174, "type" : "VEC2", "max" : [0.9479547142982483, 0.9844961166381836], "min" : [0.014928421936929226, 0.01550382375717163], "name" : "TEXCOORD_1"}], "asset" : {"generator" : "Aspose.3D 24.4.1", "version" : "2.0"}, "buffers" : [{"uri" : "data:application/octet-stream;base64,", "byteLength" : 7316}], "bufferViews" : [{"buffer" : 0, "byteOffset" : 0, "byteLength" : 348, "target" : 34963}, {"buffer" : 0, "byteOffset" : 352, "byteLength" : 6960, "byteStride" : 40, "target" : 34962}], "images" : [{"uri" : "D:\\JustCreate\\Project018\\Unity\\Texture\\Texture_01.png"}], "materials" : [{"name" : "Dungeon_Mat_01", "pbrMetallicRoughness" : {"baseColorFactor" : [1, 1, 1, 1], "baseColorTexture" : {"index" : 0, "texCoord" : 0}, "metallicFactor" : 1, "roughnessFactor" : 1}, "emissiveFactor" : [0, 0, 0], "alphaMode" : "OPAQUE", "doubleSided" : false}], "meshes" : [{"primitives" : [{"attributes" : {"POSITION" : 1, "NORMAL" : 2, "TEXCOORD_0" : 3, "TEXCOORD_1" : 4}, "indices" : 0, "material" : 0, "mode" : 4}], "name" : ""}], "nodes" : [{"mesh" : 0, "name" : "Candle_01"}], "samplers" : [{"magFilter" : 9729, "minFilter" : 9729, "wrapS" : 10497, "wrapT" : 10497}], "scene" : 0, "scenes" : [{"nodes" : [0]}], "textures" : [{"sampler" : 0, "source" : 0, "name" : "base_color_texture"}]}