# File produced by Open Asset Import Library (http://www.assimp.sf.net)
# (assimp v4.1.0)

mtllib kyv4jh5a6b01.mtl

# 49 vertex positions
v  0.2849117517471313 0.4671033322811127 0.2653942108154297
v  0.343911349773407 0.3452105522155762 0.3374248445034027
v  0.3433220684528351 0.5153533816337585 0.1570578515529633
v  -0.1957373172044754 3.481959819793701 0.3361008763313293
v  -0.2666895687580109 3.517659664154053 0.2869539260864258
v  -0.2515390515327454 3.468159437179565 0.2493420392274857
v  -0.3471069931983948 0.5208225846290588 0.3472005724906921
v  0.1635639369487762 0.5142979025840759 0.3443037867546082
v  0.1061611548066139 0.5220479369163513 0.2526402473449707
v  -0.3471619486808777 3.845356464385986 0.346980094909668
v  -0.3469278514385223 3.656642913818359 0.3430339395999908
v  0.241041824221611 0.5457565784454346 0.2224476933479309
v  0.3469352722167969 0.5209398865699768 -0.3470691740512848
v  0.2518123686313629 0.5201709866523743 -0.2519351243972778
v  -0.369821697473526 0.154643788933754 0.3528284728527069
v  0.3618493974208832 0.1546001732349396 0.3599250912666321
v  0.2519361078739166 3.47948145866394 0.2519533038139343
v  0.2519249320030212 0.7315217852592468 0.2518642246723175
v  0.3622695505619049 3.845356464385986 0.3541362881660461
v  0.3471531867980957 3.47905969619751 0.3471247851848602
v  0.347165048122406 3.479475498199463 -0.3471649587154388
v  -0.3427085280418396 3.480814218521118 0.200602725148201
v  0.347165048122406 3.845356464385986 -0.3471649587154388
v  0.3924785852432251 3.845356464385986 -0.3924785554409027
v  -0.3924785554409027 4 0.3924785554409027
v  -0.3924785554409027 4 -0.3924785554409027
v  -0.3924785554409027 3.845356464385986 -0.3924785554409027
v  -0.2514317333698273 2.755939245223999 0.2513110339641571
v  -0.2516786754131317 2.20424485206604 0.0870869904756546
v  0.3924785852432251 4 -0.3924785554409027
v  0.3924785852432251 4 0.3924785554409027
v  -0.3924785554409027 3.845356464385986 0.3924785554409027
v  -0.3471648693084717 3.845356464385986 -0.3471649587154388
v  -0.07135048508644104 2.26057767868042 0.2538908123970032
v  0.3562277555465698 0.1546437740325928 -0.3622694909572601
v  -0.35849329829216 0.1546437740325928 -0.3773740231990814
v  -0.3471648693084717 0.5205248594284058 -0.3471649587154388
v  0.2519360184669495 3.479475498199463 -0.2519360184669495
v  -0.3471658825874329 3.479184150695801 -0.3471501469612122
v  -0.2519361674785614 0.5205248594284058 0.2519384622573853
v  -0.2519360184669495 3.479475498199463 -0.2519360184669495
v  -0.221696600317955 2.025568246841431 0.2273271530866623
v  -0.25162273645401 1.800386428833008 0.2503322660923004
v  -0.2186241745948792 2.327550411224365 0.2142919152975082
v  -0.2519360184669495 0.5205248594284058 -0.2519360184669495
v  -0.3924785554409027 0 0.3924785554409027
v  0.3924785852432251 0 0.3924785554409027
v  -0.3924785554409027 0 -0.3924785554409027
v  0.3924785852432251 0 -0.3924785554409027

# 50 UV coordinates
vt 0.9230378270149231 0.2282901555299759 0
vt 0.9232486486434937 0.2278544753789902 0
vt 0.9232466220855713 0.2284626811742783 0
vt 0.9139373898506165 0.2267628759145737 0
vt 0.9136837720870972 0.2268904596567154 0
vt 0.913737952709198 0.226713553071022 0
vt 0.9207786321640015 0.2284822016954422 0
vt 0.9226040244102478 0.2284589260816574 0
vt 0.9223988056182861 0.2284865528345108 0
vt 0.9133960604667664 0.2280618399381638 0
vt 0.913396954536438 0.2273872941732407 0
vt 0.922881007194519 0.2285713404417038 0
vt 0.9232594966888428 0.228482648730278 0
vt 0.9229195117950439 0.2284798473119736 0
vt 0.9206974506378174 0.2271732836961746 0
vt 0.923312783241272 0.2271731346845627 0
vt 0.9155375957489014 0.2267540246248245 0
vt 0.8860077857971191 0.2549332678318024 0
vt 0.8860081434249878 0.2556887567043304 0
vt 0.8859692811965942 0.2550247609615326 0
vt 0.9159319400787354 0.2280618399381638 0
vt 0.9158778786659241 0.2267525047063828 0
vt 0.9158779978752136 0.2267539948225021 0
vt 0.9134120345115662 0.2267587631940842 0
vt 0.9158779978752136 0.2280618399381638 0
vt 0.9160399436950684 0.2280618399381638 0
vt 0.9132341146469116 0.2286145836114883 0
vt 0.9132341146469116 0.2280618399381638 0
vt 0.8842089176177979 0.262924998998642 0
vt 0.8842085599899292 0.2654708921909332 0
vt 0.8842080235481262 0.2609530389308929 0
vt 0.9160399436950684 0.2286145836114883 0
vt 0.8860082030296326 0.2655113637447357 0
vt 0.8848526477813721 0.2611543834209442 0
vt 0.9232926964759827 0.2271732836961746 0
vt 0.9207379221916199 0.2271732836961746 0
vt 0.9207783937454224 0.228481188416481 0
vt 0.9155375957489014 0.2267539948225021 0
vt 0.9133960604667664 0.2267529517412186 0
vt 0.9211187958717346 0.228481188416481 0
vt 0.8854870796203613 0.2549399733543396 0
vt 0.8842070698738098 0.2655113339424133 0
vt 0.8843151926994324 0.2603143155574799 0
vt 0.8842082619667053 0.2595094442367554 0
vt 0.8842070698738098 0.2549346089363098 0
vt 0.8843262195587158 0.2613937556743622 0
vt 0.9137364625930786 0.2267539948225021 0
vt 0.8860082030296326 0.2655113339424133 0
vt 0.9206164479255676 0.22662054002285 0
vt 0.9234222769737244 0.22662054002285 0

# 84 vertex normals
vn 0.5559101104736328 0.605570912361145 0.5694276094436646
vn -0.6406229138374329 -0.5791558623313904 0.504163384437561
vn 0.01317004300653934 0.9970171451568604 0.0760490819811821
vn 0.02171768620610237 -0.02087424881756306 0.999546229839325
vn 0.5462983846664429 0.6151176691055298 0.5684967041015625
vn 0.9999108910560608 0.01119187660515308 0.00729066226631403
vn 0.2573646306991577 0.9652086496353149 -0.04621468111872673
vn -0.00969654880464077 0.01596803590655327 0.9998254776000977
vn 0.02150503359735012 -0.9894094467163086 0.1435496360063553
vn 0.9977010488510132 -0.06257206201553345 0.02602694369852543
vn 0.5838323831558228 0.6150246858596802 0.5299853682518005
vn 0.00302070239558816 0.9999338984489441 0.0111024621874094
vn 0.5862413048744202 0.6032832264900208 0.5407130122184753
vn 0.9991496205329895 -0.0412328876554966 -7.478479801648064e-06
vn -0.4925819933414459 -0.5548943877220154 0.6704142093658447
vn -9.180431334243622e-06 -1 0
vn -1 0 0
vn -0.02049206756055355 -0.03844829276204109 0.999050498008728
vn -0.9999980330467224 -0.0001451755670132115 0.001990858232602477
vn 0.9814492464065552 -0.1917225867509842 0
vn 0 0 1
vn 0 -1 0
vn -0.4335885941982269 -0.6255418062210083 0.6486126780509949
vn 0.006115361116826534 -3.242294042138383e-05 0.9999814033508301
vn 0 0 -1
vn 0.006264555267989635 0.04683390259742737 0.9988831281661987
vn 0.9996312856674194 0.02491077780723572 0.0108114080503583
vn -0.01008495222777128 -0.01872103661298752 0.9997739195823669
vn -0.9995212554931641 0.030941441655159 7.020913471933454e-05
vn 0.0004191862535662949 -0.9999998807907104 0.0004196185036562383
vn 0.002698434283956885 0.9999963045120239 -0.0004289964854251593
vn -0.641235888004303 -0.5751580595970154 0.5079467296600342
vn -2.131543442374095e-05 -4.055778481415473e-05 -1
vn 0.2430530935525894 -0.1655893325805664 0.9557748436927795
vn -0.9999992251396179 -0.00124057475477457 4.322642325860215e-06
vn -0.1396229118108749 -0.9901963472366333 0.004082966595888138
vn 0.9997681975364685 0 -0.02153284661471844
vn 0.0491328127682209 -0.2493942975997925 0.9671549201011658
vn -0.005253465380519629 0.002982864854857326 0.9999818205833435
vn 0.9956560730934143 0.09278543293476105 -0.007744633127003908
vn 0.9991825222969055 0 0.04042823612689972
vn -1 2.781145667540841e-06 0.0003440972941461951
vn 0.1597071439027786 0.1305347979068756 0.9784959554672241
vn -0.9999997019767761 8.78253467817558e-06 0.0007920910720713437
vn -0.9994965195655823 -0.03064700774848461 0.008224666118621826
vn -0.3867112994194031 0.1444447189569473 0.9108184576034546
vn -0.9032737612724304 0.1606872975826263 0.3978395462036133
vn -0.02295177802443504 0.001260240096598864 0.9997358322143555
vn -0.9346854686737061 -0.101033054292202 0.3408158123493195
vn -0.004442458972334862 -0.9999901652336121 1.182973755931016e-05
vn 0 -0.9999953508377075 0.003059904556721449
vn -0.0005913997301831841 -0.9999996423721313 -0.0005988984485156834
vn -0.005361257586628199 -0.9999852776527405 0.0009318781667388976
vn 1.774833663148456e-06 0 -1
vn -0.9722046256065369 0.01996107771992683 0.2332803457975388
vn 0.02563189528882504 -0.9994163513183594 -0.02258153818547726
vn -0.1343737244606018 0.9768022298812866 0.1667367517948151
vn -0.004238494671881199 0.9999639987945557 -0.007359825074672699
vn -0.9979766607284546 0.06166826188564301 -0.01548279542475939
vn -0.001981353387236595 0.005083533469587564 0.9999852180480957
vn -0.3024854958057404 -0.1050301492214203 0.9473496079444885
vn 0.000645230058580637 -0.001189011731185019 0.9999991655349731
vn -0.2405647933483124 0.04430171847343445 0.9696215391159058
vn -0.9999997615814209 0 0.0007591157336719334
vn 0 -2.798132072712178e-07 -1
vn -0.000598172249738127 0.9999996423721313 0.000598017533775419
vn 1 -4.06696517529781e-06 -2.582770832759707e-07
vn 0 1 0
vn 1.708015361145954e-06 1 0
vn 0.0007026857929304242 0.9999611973762512 0.008784317411482334
vn -0.006723504047840834 0.002763406140729785 0.9999735951423645
vn 1 -4.178347080596723e-05 -0.0002058922545984387
vn 0.02105825208127499 0.08161962777376175 -0.996441125869751
vn -0.9999998807907104 5.596590199274942e-05 0.0004811490071006119
vn -1 0.0002448940358590335 -2.77278331850539e-07
vn -0.009376781992614269 0.249640166759491 0.968293309211731
vn 0.9812104105949402 0.1927903443574905 -0.007626256439834833
vn -0.9762694835662842 0.2160290330648422 -0.01514592673629522
vn 0.02071742154657841 0.196356475353241 -0.9803136587142944
vn 0.0001130862656282261 0.04146453365683556 -0.9991400241851807
vn 0 0.2060474753379822 0.9785420894622803
vn 0.9736076593399048 0.2282283157110214 0
vn -0.9894372224807739 0.1449624300003052 0
vn 0 0.09721070528030396 -0.995263934135437

# Mesh 'Column_01' with 94 faces
g Column_01
usemtl Dungeon_Mat_01
f  1/1/1 2/2/1 3/3/1
f  4/4/2 5/5/2 6/6/2
f  7/7/3 8/8/3 9/9/3
f  4/4/4 10/10/4 11/11/4
f  1/1/5 3/3/5 12/12/5
f  13/13/6 3/3/6 2/2/6
f  14/14/7 12/12/7 3/3/7
f  15/15/8 16/16/8 7/7/8
f  4/4/9 6/6/9 17/17/9
f  14/18/10 18/19/10 12/20/10
f  8/8/11 1/1/11 12/12/11
f  14/14/12 3/3/12 13/13/12
f  2/2/13 1/1/13 8/8/13
f  19/21/14 20/22/14 21/23/14
f  5/5/15 11/11/15 22/24/15
f  19/21/16 23/25/16 24/26/16
f  25/27/17 26/27/17 27/28/17
f  20/22/18 10/10/18 4/4/18
f  28/29/19 6/30/19 29/31/19
f  19/21/20 30/32/20 31/32/20
f  32/28/21 31/32/21 25/27/21
f  33/10/22 10/10/22 27/28/22
f  5/5/23 22/24/23 6/6/23
f  18/19/24 17/33/24 34/34/24
f  10/10/22 19/21/22 32/28/22
f  27/28/25 26/27/25 24/26/25
f  16/16/26 8/8/26 7/7/26
f  13/13/27 2/2/27 35/35/27
f  10/10/28 20/22/28 19/21/28
f  36/36/29 7/7/29 37/37/29
f  21/23/30 38/38/30 39/39/30
f  7/7/31 40/40/31 37/37/31
f  11/11/32 5/5/32 4/4/32
f  33/10/33 21/23/33 39/39/33
f  12/20/34 18/19/34 9/41/34
f  27/28/17 32/28/17 25/27/17
f  10/10/22 32/28/22 27/28/22
f  10/10/35 33/10/35 11/11/35
f  22/24/36 39/39/36 6/6/36
f  23/25/37 19/21/37 21/23/37
f  23/25/22 33/10/22 24/26/22
f  33/10/22 27/28/22 24/26/22
f  32/28/38 19/21/38 31/32/38
f  33/10/25 23/25/25 21/23/25
f  24/26/25 26/27/25 30/32/25
f  17/33/39 6/30/39 34/34/39
f  16/16/40 35/35/40 2/2/40
f  19/21/41 24/26/41 30/32/41
f  39/39/42 11/11/42 33/10/42
f  8/8/43 16/16/43 2/2/43
f  41/42/44 29/31/44 6/30/44
f  11/11/45 39/39/45 22/24/45
f  42/43/46 43/44/46 34/34/46
f  43/44/47 42/43/47 29/31/47
f  40/45/48 34/34/48 43/44/48
f  44/46/49 28/29/49 29/31/49
f  17/17/50 38/38/50 20/22/50
f  38/38/51 41/47/51 39/39/51
f  38/38/52 21/23/52 20/22/52
f  17/17/53 20/22/53 4/4/53
f  14/18/54 45/45/54 41/42/54
f  29/31/55 42/43/55 44/46/55
f  39/39/56 41/47/56 6/6/56
f  12/12/57 9/9/57 8/8/57
f  9/9/58 40/40/58 7/7/58
f  7/7/59 36/36/59 15/15/59
f  18/19/60 40/45/60 9/41/60
f  28/29/61 44/46/61 34/34/61
f  34/34/62 40/45/62 18/19/62
f  42/43/63 34/34/63 44/46/63
f  45/45/64 29/31/64 41/42/64
f  14/18/65 41/42/65 38/48/65
f  37/37/66 45/40/66 13/13/66
f  17/33/67 18/19/67 38/48/67
f  26/27/68 25/27/68 31/32/68
f  40/40/69 45/40/69 37/37/69
f  45/40/70 14/14/70 13/13/70
f  6/30/71 28/29/71 34/34/71
f  14/18/72 38/48/72 18/19/72
f  37/37/73 35/35/73 36/36/73
f  43/44/74 29/31/74 45/45/74
f  40/45/75 43/44/75 45/45/75
f  16/16/76 15/15/76 46/49/76
f  35/35/77 16/16/77 47/50/77
f  15/15/78 36/36/78 48/49/78
f  36/36/79 35/35/79 49/50/79
f  37/37/80 13/13/80 35/35/80
f  49/50/22 47/50/22 46/49/22
f  16/16/81 46/49/81 47/50/81
f  35/35/82 47/50/82 49/50/82
f  15/15/83 48/49/83 46/49/83
f  36/36/84 49/50/84 48/49/84
f  26/27/68 31/32/68 30/32/68
f  49/50/22 46/49/22 48/49/22

