{"accessors" : [{"bufferView" : 0, "byteOffset" : 0, "componentType" : 5123, "count" : 540, "type" : "SCALAR", "max" : [539], "min" : [0]}, {"bufferView" : 1, "byteOffset" : 0, "componentType" : 5126, "count" : 540, "type" : "VEC3", "max" : [0.10580963641405106, 0.2569546401500702, 0.25541219115257263], "min" : [-0.10580963641405106, -0.2385031282901764, 6.177303293952718E-05], "name" : "POSITION"}, {"bufferView" : 1, "byteOffset" : 12, "componentType" : 5126, "count" : 540, "type" : "VEC3", "max" : [1.0000044107437134, 1.0000044107437134, 1.0000044107437134], "min" : [-1.0000044107437134, -1.0000044107437134, -1.0000044107437134], "name" : "NORMAL"}, {"bufferView" : 1, "byteOffset" : 24, "componentType" : 5126, "count" : 540, "type" : "VEC2", "max" : [0.5038948059082031, 0.49715733528137207], "min" : [0.23192206025123596, 0.18791359663009644], "name" : "TEXCOORD_0"}, {"bufferView" : 1, "byteOffset" : 32, "componentType" : 5126, "count" : 540, "type" : "VEC2", "max" : [0.9084798693656921, 0.9844961166381836], "min" : [0.014306987635791302, 0.015503883361816406], "name" : "TEXCOORD_1"}, {"bufferView" : 0, "byteOffset" : 1080, "componentType" : 5123, "count" : 96, "type" : "SCALAR", "max" : [95], "min" : [0]}, {"bufferView" : 2, "byteOffset" : 0, "componentType" : 5126, "count" : 96, "type" : "VEC3", "max" : [0.05781380832195282, 0.4101700186729431, 0.2373467981815338], "min" : [-0.05023618042469025, 0.18313802778720856, 0.12909404933452606], "name" : "POSITION"}, {"bufferView" : 2, "byteOffset" : 12, "componentType" : 5126, "count" : 96, "type" : "VEC3", "max" : [0.974803626537323, 0.8354841470718384, 0.9609484672546387], "min" : [-0.9954558610916138, -0.7210020422935486, -0.9582347869873047], "name" : "NORMAL"}, {"bufferView" : 2, "byteOffset" : 24, "componentType" : 5126, "count" : 96, "type" : "VEC2", "max" : [0.3271850645542145, 0.5766414999961853], "min" : [0.2609505355358124, 0.43747103214263916], "name" : "TEXCOORD_0"}, {"bufferView" : 2, "byteOffset" : 32, "componentType" : 5126, "count" : 96, "type" : "VEC2", "max" : [0.6838500499725342, 0.7075613737106323], "min" : [0.014306769706308842, 0.021794438362121582], "name" : "TEXCOORD_1"}], "asset" : {"generator" : "Aspose.3D 24.4.1", "version" : "2.0"}, "buffers" : [{"uri" : "data:application/octet-stream;base64,", "byteLength" : 26724}], "bufferViews" : [{"buffer" : 0, "byteOffset" : 0, "byteLength" : 1272, "target" : 34963}, {"buffer" : 0, "byteOffset" : 1276, "byteLength" : 21600, "byteStride" : 40, "target" : 34962}, {"buffer" : 0, "byteOffset" : 22880, "byteLength" : 3840, "byteStride" : 40, "target" : 34962}], "images" : [{"uri" : "D:\\JustCreate\\Project018\\Unity\\Texture\\Texture_01.png"}], "materials" : [{"name" : "Dungeon_Mat_01.001", "pbrMetallicRoughness" : {"baseColorFactor" : [1, 1, 1, 1], "baseColorTexture" : {"index" : 0, "texCoord" : 0}, "metallicFactor" : 1, "roughnessFactor" : 1}, "emissiveFactor" : [0, 0, 0], "alphaMode" : "OPAQUE", "doubleSided" : false}, {"name" : "Light_01", "pbrMetallicRoughness" : {"baseColorFactor" : [0.800000011920929, 0.800000011920929, 0.800000011920929, 1], "metallicFactor" : 1, "roughnessFactor" : 1}, "emissiveFactor" : [0, 0, 0], "alphaMode" : "OPAQUE", "doubleSided" : false}], "meshes" : [{"primitives" : [{"attributes" : {"POSITION" : 1, "NORMAL" : 2, "TEXCOORD_0" : 3, "TEXCOORD_1" : 4}, "indices" : 0, "material" : 0, "mode" : 4}, {"attributes" : {"POSITION" : 6, "NORMAL" : 7, "TEXCOORD_0" : 8, "TEXCOORD_1" : 9}, "indices" : 5, "material" : 1, "mode" : 4}], "name" : "Mesh.001"}], "nodes" : [{"mesh" : 0, "name" : "Light_08"}], "samplers" : [{"magFilter" : 9729, "minFilter" : 9729, "wrapS" : 10497, "wrapT" : 10497}], "scene" : 0, "scenes" : [{"nodes" : [0]}], "textures" : [{"sampler" : 0, "source" : 0, "name" : "base_color_texture"}]}