{"accessors" : [{"bufferView" : 0, "byteOffset" : 0, "componentType" : 5123, "count" : 228, "type" : "SCALAR", "max" : [227], "min" : [0]}, {"bufferView" : 1, "byteOffset" : 0, "componentType" : 5126, "count" : 228, "type" : "VEC3", "max" : [0.594890296459198, 0.682773232460022, 0.5378385782241821], "min" : [-0.733647346496582, -0.7391895651817322, -0.7043639421463013], "name" : "POSITION"}, {"bufferView" : 1, "byteOffset" : 12, "componentType" : 5126, "count" : 228, "type" : "VEC3", "max" : [0.9702135324478149, 0.9953175783157349, 0.9860239028930664], "min" : [-0.9331481456756592, -0.9282575845718384, -0.9172422885894775], "name" : "NORMAL"}, {"bufferView" : 1, "byteOffset" : 24, "componentType" : 5126, "count" : 228, "type" : "VEC2", "max" : [0.28133252263069153, 0.16231626272201538], "min" : [0.2196606695652008, 0.09630745649337769], "name" : "TEXCOORD_0"}, {"bufferView" : 1, "byteOffset" : 32, "componentType" : 5126, "count" : 228, "type" : "VEC2", "max" : [0.9584282040596008, 0.9844961166381836], "min" : [0.015093358233571053, 0.01550382375717163], "name" : "TEXCOORD_1"}], "asset" : {"generator" : "Aspose.3D 24.4.1", "version" : "2.0"}, "buffers" : [{"uri" : "data:application/octet-stream;base64,", "byteLength" : 9584}], "bufferViews" : [{"buffer" : 0, "byteOffset" : 0, "byteLength" : 456, "target" : 34963}, {"buffer" : 0, "byteOffset" : 460, "byteLength" : 9120, "byteStride" : 40, "target" : 34962}], "images" : [{"uri" : "D:\\JustCreate\\Project018\\Unity\\Texture\\Texture_01.png"}], "materials" : [{"name" : "Dungeon_Mat_01", "pbrMetallicRoughness" : {"baseColorFactor" : [1, 1, 1, 1], "baseColorTexture" : {"index" : 0, "texCoord" : 0}, "metallicFactor" : 1, "roughnessFactor" : 1}, "emissiveFactor" : [0, 0, 0], "alphaMode" : "OPAQUE", "doubleSided" : false}], "meshes" : [{"primitives" : [{"attributes" : {"POSITION" : 1, "NORMAL" : 2, "TEXCOORD_0" : 3, "TEXCOORD_1" : 4}, "indices" : 0, "material" : 0, "mode" : 4}], "name" : ""}], "nodes" : [{"mesh" : 0, "name" : "Rock_01"}], "samplers" : [{"magFilter" : 9729, "minFilter" : 9729, "wrapS" : 10497, "wrapT" : 10497}], "scene" : 0, "scenes" : [{"nodes" : [0]}], "textures" : [{"sampler" : 0, "source" : 0, "name" : "base_color_texture"}]}